<svg width="178" height="90" viewBox="0 0 178 90" fill="none" xmlns="http://www.w3.org/2000/svg">
<path d="M28.984 46V37.6H32.092C32.764 37.6 33.32 37.712 33.76 37.936C34.2 38.16 34.528 38.468 34.744 38.86C34.96 39.252 35.068 39.692 35.068 40.18C35.068 40.644 34.964 41.072 34.756 41.464C34.548 41.848 34.224 42.16 33.784 42.4C33.344 42.632 32.78 42.748 32.092 42.748H30.52V46H28.984ZM30.52 41.5H31.996C32.532 41.5 32.916 41.384 33.148 41.152C33.388 40.912 33.508 40.588 33.508 40.18C33.508 39.764 33.388 39.44 33.148 39.208C32.916 38.968 32.532 38.848 31.996 38.848H30.52V41.5ZM36.237 46V40.048H37.605L37.749 41.164C37.965 40.78 38.257 40.476 38.625 40.252C39.001 40.02 39.441 39.904 39.945 39.904V41.524H39.513C39.177 41.524 38.877 41.576 38.613 41.68C38.349 41.784 38.141 41.964 37.989 42.22C37.845 42.476 37.773 42.832 37.773 43.288V46H36.237ZM43.7814 46.144C43.1814 46.144 42.6494 46.016 42.1854 45.76C41.7214 45.504 41.3574 45.144 41.0934 44.68C40.8294 44.216 40.6974 43.68 40.6974 43.072C40.6974 42.456 40.8254 41.908 41.0814 41.428C41.3454 40.948 41.7054 40.576 42.1614 40.312C42.6254 40.04 43.1694 39.904 43.7934 39.904C44.3774 39.904 44.8934 40.032 45.3414 40.288C45.7894 40.544 46.1374 40.896 46.3854 41.344C46.6414 41.784 46.7694 42.276 46.7694 42.82C46.7694 42.908 46.7654 43 46.7574 43.096C46.7574 43.192 46.7534 43.292 46.7454 43.396H42.2214C42.2534 43.86 42.4134 44.224 42.7014 44.488C42.9974 44.752 43.3534 44.884 43.7694 44.884C44.0814 44.884 44.3414 44.816 44.5494 44.68C44.7654 44.536 44.9254 44.352 45.0294 44.128H46.5894C46.4774 44.504 46.2894 44.848 46.0254 45.16C45.7694 45.464 45.4494 45.704 45.0654 45.88C44.6894 46.056 44.2614 46.144 43.7814 46.144ZM43.7934 41.152C43.4174 41.152 43.0854 41.26 42.7974 41.476C42.5094 41.684 42.3254 42.004 42.2454 42.436H45.2094C45.1854 42.044 45.0414 41.732 44.7774 41.5C44.5134 41.268 44.1854 41.152 43.7934 41.152ZM49.4349 46L47.2509 40.048H48.8589L50.3709 44.548L51.8829 40.048H53.4909L51.2949 46H49.4349ZM55.2877 39.124C55.0077 39.124 54.7757 39.04 54.5917 38.872C54.4157 38.704 54.3277 38.492 54.3277 38.236C54.3277 37.98 54.4157 37.772 54.5917 37.612C54.7757 37.444 55.0077 37.36 55.2877 37.36C55.5677 37.36 55.7957 37.444 55.9717 37.612C56.1557 37.772 56.2477 37.98 56.2477 38.236C56.2477 38.492 56.1557 38.704 55.9717 38.872C55.7957 39.04 55.5677 39.124 55.2877 39.124ZM54.5197 46V40.048H56.0557V46H54.5197ZM60.5509 46.144C59.9509 46.144 59.4189 46.016 58.9549 45.76C58.4909 45.504 58.1269 45.144 57.8629 44.68C57.5989 44.216 57.4669 43.68 57.4669 43.072C57.4669 42.456 57.5949 41.908 57.8509 41.428C58.1149 40.948 58.4749 40.576 58.9309 40.312C59.3949 40.04 59.9389 39.904 60.5629 39.904C61.1469 39.904 61.6629 40.032 62.1109 40.288C62.5589 40.544 62.9069 40.896 63.1549 41.344C63.4109 41.784 63.5389 42.276 63.5389 42.82C63.5389 42.908 63.5349 43 63.5269 43.096C63.5269 43.192 63.5229 43.292 63.5149 43.396H58.9909C59.0229 43.86 59.1829 44.224 59.4709 44.488C59.7669 44.752 60.1229 44.884 60.5389 44.884C60.8509 44.884 61.1109 44.816 61.3189 44.68C61.5349 44.536 61.6949 44.352 61.7989 44.128H63.3589C63.2469 44.504 63.0589 44.848 62.7949 45.16C62.5389 45.464 62.2189 45.704 61.8349 45.88C61.4589 46.056 61.0309 46.144 60.5509 46.144ZM60.5629 41.152C60.1869 41.152 59.8549 41.26 59.5669 41.476C59.2789 41.684 59.0949 42.004 59.0149 42.436H61.9789C61.9549 42.044 61.8109 41.732 61.5469 41.5C61.2829 41.268 60.9549 41.152 60.5629 41.152ZM65.7604 46L64.0204 40.048H65.5444L66.5764 44.332L67.7764 40.048H69.4804L70.6804 44.332L71.7244 40.048H73.2484L71.4964 46H69.9004L68.6284 41.548L67.3564 46H65.7604ZM77.0769 46V40.048H78.4329L78.5529 41.056C78.7369 40.704 79.0009 40.424 79.3449 40.216C79.6969 40.008 80.1089 39.904 80.5809 39.904C81.3169 39.904 81.8889 40.136 82.2969 40.6C82.7049 41.064 82.9089 41.744 82.9089 42.64V46H81.3729V42.784C81.3729 42.272 81.2689 41.88 81.0609 41.608C80.8529 41.336 80.5289 41.2 80.0889 41.2C79.6569 41.2 79.3009 41.352 79.0209 41.656C78.7489 41.96 78.6129 42.384 78.6129 42.928V46H77.0769ZM87.2337 46.144C86.6577 46.144 86.1377 46.012 85.6737 45.748C85.2177 45.484 84.8537 45.12 84.5817 44.656C84.3177 44.184 84.1857 43.64 84.1857 43.024C84.1857 42.408 84.3217 41.868 84.5937 41.404C84.8657 40.932 85.2297 40.564 85.6857 40.3C86.1497 40.036 86.6697 39.904 87.2457 39.904C87.8137 39.904 88.3257 40.036 88.7817 40.3C89.2457 40.564 89.6097 40.932 89.8737 41.404C90.1457 41.868 90.2817 42.408 90.2817 43.024C90.2817 43.64 90.1457 44.184 89.8737 44.656C89.6097 45.12 89.2457 45.484 88.7817 45.748C88.3177 46.012 87.8017 46.144 87.2337 46.144ZM87.2337 44.812C87.6337 44.812 87.9817 44.664 88.2777 44.368C88.5737 44.064 88.7217 43.616 88.7217 43.024C88.7217 42.432 88.5737 41.988 88.2777 41.692C87.9817 41.388 87.6377 41.236 87.2457 41.236C86.8377 41.236 86.4857 41.388 86.1897 41.692C85.9017 41.988 85.7577 42.432 85.7577 43.024C85.7577 43.616 85.9017 44.064 86.1897 44.368C86.4857 44.664 86.8337 44.812 87.2337 44.812ZM94.0726 46C93.4486 46 92.9486 45.848 92.5726 45.544C92.1966 45.24 92.0086 44.7 92.0086 43.924V41.332H90.9886V40.048H92.0086L92.1886 38.452H93.5446V40.048H95.1526V41.332H93.5446V43.936C93.5446 44.224 93.6046 44.424 93.7246 44.536C93.8526 44.64 94.0686 44.692 94.3726 44.692H95.1166V46H94.0726ZM101.383 46.144C100.871 46.144 100.451 46.064 100.123 45.904C99.7948 45.736 99.5508 45.516 99.3908 45.244C99.2308 44.972 99.1508 44.672 99.1508 44.344C99.1508 43.792 99.3668 43.344 99.7988 43C100.231 42.656 100.879 42.484 101.743 42.484H103.255V42.34C103.255 41.932 103.139 41.632 102.907 41.44C102.675 41.248 102.387 41.152 102.043 41.152C101.731 41.152 101.459 41.228 101.227 41.38C100.995 41.524 100.851 41.74 100.795 42.028H99.2948C99.3348 41.596 99.4788 41.22 99.7268 40.9C99.9828 40.58 100.311 40.336 100.711 40.168C101.111 39.992 101.559 39.904 102.055 39.904C102.903 39.904 103.571 40.116 104.059 40.54C104.547 40.964 104.791 41.564 104.791 42.34V46H103.483L103.339 45.04C103.163 45.36 102.915 45.624 102.595 45.832C102.283 46.04 101.879 46.144 101.383 46.144ZM101.731 44.944C102.171 44.944 102.511 44.8 102.751 44.512C102.999 44.224 103.155 43.868 103.219 43.444H101.911C101.503 43.444 101.211 43.52 101.035 43.672C100.859 43.816 100.771 43.996 100.771 44.212C100.771 44.444 100.859 44.624 101.035 44.752C101.211 44.88 101.443 44.944 101.731 44.944ZM107.689 46L105.505 40.048H107.113L108.625 44.548L110.137 40.048H111.745L109.549 46H107.689ZM114.402 46.144C113.89 46.144 113.47 46.064 113.142 45.904C112.814 45.736 112.57 45.516 112.41 45.244C112.25 44.972 112.17 44.672 112.17 44.344C112.17 43.792 112.386 43.344 112.818 43C113.25 42.656 113.898 42.484 114.762 42.484H116.274V42.34C116.274 41.932 116.158 41.632 115.926 41.44C115.694 41.248 115.406 41.152 115.062 41.152C114.75 41.152 114.478 41.228 114.246 41.38C114.014 41.524 113.87 41.74 113.814 42.028H112.314C112.354 41.596 112.498 41.22 112.746 40.9C113.002 40.58 113.33 40.336 113.73 40.168C114.13 39.992 114.578 39.904 115.074 39.904C115.922 39.904 116.59 40.116 117.078 40.54C117.566 40.964 117.81 41.564 117.81 42.34V46H116.502L116.358 45.04C116.182 45.36 115.934 45.624 115.614 45.832C115.302 46.04 114.898 46.144 114.402 46.144ZM114.75 44.944C115.19 44.944 115.53 44.8 115.77 44.512C116.018 44.224 116.174 43.868 116.238 43.444H114.93C114.522 43.444 114.23 43.52 114.054 43.672C113.878 43.816 113.79 43.996 113.79 44.212C113.79 44.444 113.878 44.624 114.054 44.752C114.23 44.88 114.462 44.944 114.75 44.944ZM120.104 39.124C119.824 39.124 119.592 39.04 119.408 38.872C119.232 38.704 119.144 38.492 119.144 38.236C119.144 37.98 119.232 37.772 119.408 37.612C119.592 37.444 119.824 37.36 120.104 37.36C120.384 37.36 120.612 37.444 120.788 37.612C120.972 37.772 121.064 37.98 121.064 38.236C121.064 38.492 120.972 38.704 120.788 38.872C120.612 39.04 120.384 39.124 120.104 39.124ZM119.336 46V40.048H120.872V46H119.336ZM122.475 46V37.36H124.011V46H122.475ZM127.633 46.144C127.121 46.144 126.701 46.064 126.373 45.904C126.045 45.736 125.801 45.516 125.641 45.244C125.481 44.972 125.401 44.672 125.401 44.344C125.401 43.792 125.617 43.344 126.049 43C126.481 42.656 127.129 42.484 127.993 42.484H129.505V42.34C129.505 41.932 129.389 41.632 129.157 41.44C128.925 41.248 128.637 41.152 128.293 41.152C127.981 41.152 127.709 41.228 127.477 41.38C127.245 41.524 127.101 41.74 127.045 42.028H125.545C125.585 41.596 125.729 41.22 125.977 40.9C126.233 40.58 126.561 40.336 126.961 40.168C127.361 39.992 127.809 39.904 128.305 39.904C129.153 39.904 129.821 40.116 130.309 40.54C130.797 40.964 131.041 41.564 131.041 42.34V46H129.733L129.589 45.04C129.413 45.36 129.165 45.624 128.845 45.832C128.533 46.04 128.129 46.144 127.633 46.144ZM127.981 44.944C128.421 44.944 128.761 44.8 129.001 44.512C129.249 44.224 129.405 43.868 129.469 43.444H128.161C127.753 43.444 127.461 43.52 127.285 43.672C127.109 43.816 127.021 43.996 127.021 44.212C127.021 44.444 127.109 44.624 127.285 44.752C127.461 44.88 127.693 44.944 127.981 44.944ZM136.035 46.144C135.587 46.144 135.195 46.06 134.859 45.892C134.523 45.724 134.251 45.488 134.043 45.184L133.875 46H132.507V37.36H134.043V40.9C134.235 40.636 134.487 40.404 134.799 40.204C135.119 40.004 135.531 39.904 136.035 39.904C136.595 39.904 137.095 40.04 137.535 40.312C137.975 40.584 138.323 40.956 138.579 41.428C138.835 41.9 138.963 42.436 138.963 43.036C138.963 43.636 138.835 44.172 138.579 44.644C138.323 45.108 137.975 45.476 137.535 45.748C137.095 46.012 136.595 46.144 136.035 46.144ZM135.711 44.8C136.199 44.8 136.603 44.636 136.923 44.308C137.243 43.98 137.403 43.556 137.403 43.036C137.403 42.516 137.243 42.088 136.923 41.752C136.603 41.416 136.199 41.248 135.711 41.248C135.215 41.248 134.807 41.416 134.487 41.752C134.175 42.08 134.019 42.504 134.019 43.024C134.019 43.544 134.175 43.972 134.487 44.308C134.807 44.636 135.215 44.8 135.711 44.8ZM140.335 46V37.36H141.871V46H140.335ZM146.332 46.144C145.732 46.144 145.2 46.016 144.736 45.76C144.272 45.504 143.908 45.144 143.644 44.68C143.38 44.216 143.248 43.68 143.248 43.072C143.248 42.456 143.376 41.908 143.632 41.428C143.896 40.948 144.256 40.576 144.712 40.312C145.176 40.04 145.72 39.904 146.344 39.904C146.928 39.904 147.444 40.032 147.892 40.288C148.34 40.544 148.688 40.896 148.936 41.344C149.192 41.784 149.32 42.276 149.32 42.82C149.32 42.908 149.316 43 149.308 43.096C149.308 43.192 149.304 43.292 149.296 43.396H144.772C144.804 43.86 144.964 44.224 145.252 44.488C145.548 44.752 145.904 44.884 146.32 44.884C146.632 44.884 146.892 44.816 147.1 44.68C147.316 44.536 147.476 44.352 147.58 44.128H149.14C149.028 44.504 148.84 44.848 148.576 45.16C148.32 45.464 148 45.704 147.616 45.88C147.24 46.056 146.812 46.144 146.332 46.144ZM146.344 41.152C145.968 41.152 145.636 41.26 145.348 41.476C145.06 41.684 144.876 42.004 144.796 42.436H147.76C147.736 42.044 147.592 41.732 147.328 41.5C147.064 41.268 146.736 41.152 146.344 41.152Z" fill="white"/>
<g clip-path="url(#clip0_1_832)">
<path d="M96.5 2H81.5C80.3073 2.00264 79.1643 2.4776 78.3209 3.32094C77.4776 4.16428 77.0026 5.30734 77 6.5V17.5C77.0026 18.6927 77.4776 19.8357 78.3209 20.6791C79.1643 21.5224 80.3073 21.9974 81.5 22H96.5C97.6927 21.9974 98.8357 21.5224 99.6791 20.6791C100.522 19.8357 100.997 18.6927 101 17.5V6.5C100.997 5.30734 100.522 4.16428 99.6791 3.32094C98.8357 2.4776 97.6927 2.00264 96.5 2ZM92.93 13.34L87.17 16.22C86.9415 16.3341 86.6876 16.3879 86.4324 16.3764C86.1772 16.3649 85.9292 16.2884 85.7119 16.1542C85.4945 16.02 85.3151 15.8325 85.1905 15.6095C85.0659 15.3865 85.0003 15.1354 85 14.88V9.12C84.9975 8.86352 85.0613 8.61075 85.1852 8.38616C85.3091 8.16156 85.4888 7.97274 85.7071 7.83798C85.9253 7.70322 86.1746 7.62707 86.4309 7.61692C86.6872 7.60676 86.9418 7.66293 87.17 7.78L92.93 10.66C93.1814 10.7822 93.3933 10.9727 93.5416 11.2096C93.6898 11.4466 93.7685 11.7205 93.7685 12C93.7685 12.2795 93.6898 12.5534 93.5416 12.7904C93.3933 13.0273 93.1814 13.2178 92.93 13.34Z" fill="white"/>
</g>
<path d="M0.953563 70V61.6H3.89356C4.54956 61.6 5.09356 61.712 5.52556 61.936C5.95756 62.152 6.27756 62.452 6.48556 62.836C6.70156 63.212 6.80956 63.64 6.80956 64.12C6.80956 64.576 6.70556 64.996 6.49756 65.38C6.29756 65.756 5.98156 66.056 5.54956 66.28C5.11756 66.504 4.56556 66.616 3.89356 66.616H2.22556V70H0.953563ZM2.22556 65.572H3.83356C4.43356 65.572 4.86156 65.444 5.11756 65.188C5.38156 64.924 5.51356 64.568 5.51356 64.12C5.51356 63.656 5.38156 63.296 5.11756 63.04C4.86156 62.776 4.43356 62.644 3.83356 62.644H2.22556V65.572ZM8.01884 70V61.36H9.29084V70H8.01884ZM13.6857 70.144C13.1017 70.144 12.5817 70.016 12.1257 69.76C11.6777 69.496 11.3257 69.132 11.0697 68.668C10.8137 68.204 10.6857 67.664 10.6857 67.048C10.6857 66.424 10.8097 65.876 11.0577 65.404C11.3137 64.932 11.6657 64.564 12.1137 64.3C12.5697 64.036 13.0977 63.904 13.6977 63.904C14.2817 63.904 14.7897 64.036 15.2217 64.3C15.6537 64.556 15.9897 64.9 16.2297 65.332C16.4697 65.764 16.5897 66.24 16.5897 66.76C16.5897 66.84 16.5857 66.928 16.5777 67.024C16.5777 67.112 16.5737 67.212 16.5657 67.324H11.9337C11.9737 67.9 12.1617 68.34 12.4977 68.644C12.8417 68.94 13.2377 69.088 13.6857 69.088C14.0457 69.088 14.3457 69.008 14.5857 68.848C14.8337 68.68 15.0177 68.456 15.1377 68.176H16.4097C16.2497 68.736 15.9297 69.204 15.4497 69.58C14.9777 69.956 14.3897 70.144 13.6857 70.144ZM13.6857 64.948C13.2617 64.948 12.8857 65.076 12.5577 65.332C12.2297 65.58 12.0297 65.956 11.9577 66.46H15.3177C15.2937 65.996 15.1297 65.628 14.8257 65.356C14.5217 65.084 14.1417 64.948 13.6857 64.948ZM19.9255 70.144C19.4215 70.144 19.0055 70.06 18.6775 69.892C18.3495 69.724 18.1055 69.504 17.9455 69.232C17.7855 68.952 17.7055 68.648 17.7055 68.32C17.7055 67.744 17.9295 67.288 18.3775 66.952C18.8255 66.616 19.4655 66.448 20.2975 66.448H21.8575V66.34C21.8575 65.876 21.7295 65.528 21.4735 65.296C21.2255 65.064 20.9015 64.948 20.5015 64.948C20.1495 64.948 19.8415 65.036 19.5775 65.212C19.3215 65.38 19.1655 65.632 19.1095 65.968H17.8375C17.8775 65.536 18.0215 65.168 18.2695 64.864C18.5255 64.552 18.8455 64.316 19.2295 64.156C19.6215 63.988 20.0495 63.904 20.5135 63.904C21.3455 63.904 21.9895 64.124 22.4455 64.564C22.9015 64.996 23.1295 65.588 23.1295 66.34V70H22.0255L21.9175 68.98C21.7495 69.308 21.5055 69.584 21.1855 69.808C20.8655 70.032 20.4455 70.144 19.9255 70.144ZM20.1775 69.112C20.5215 69.112 20.8095 69.032 21.0415 68.872C21.2815 68.704 21.4655 68.484 21.5935 68.212C21.7295 67.94 21.8135 67.64 21.8455 67.312H20.4295C19.9255 67.312 19.5655 67.4 19.3495 67.576C19.1415 67.752 19.0375 67.972 19.0375 68.236C19.0375 68.508 19.1375 68.724 19.3375 68.884C19.5455 69.036 19.8255 69.112 20.1775 69.112ZM26.9886 70.144C26.2366 70.144 25.6166 69.96 25.1286 69.592C24.6406 69.224 24.3606 68.736 24.2886 68.128H25.5726C25.6366 68.4 25.7886 68.636 26.0286 68.836C26.2686 69.028 26.5846 69.124 26.9766 69.124C27.3606 69.124 27.6406 69.044 27.8166 68.884C27.9926 68.724 28.0806 68.54 28.0806 68.332C28.0806 68.028 27.9566 67.824 27.7086 67.72C27.4686 67.608 27.1326 67.508 26.7006 67.42C26.3646 67.348 26.0286 67.252 25.6926 67.132C25.3646 67.012 25.0886 66.844 24.8646 66.628C24.6486 66.404 24.5406 66.104 24.5406 65.728C24.5406 65.208 24.7406 64.776 25.1406 64.432C25.5406 64.08 26.1006 63.904 26.8206 63.904C27.4846 63.904 28.0206 64.064 28.4286 64.384C28.8446 64.704 29.0886 65.156 29.1606 65.74H27.9366C27.8966 65.484 27.7766 65.284 27.5766 65.14C27.3846 64.996 27.1246 64.924 26.7966 64.924C26.4766 64.924 26.2286 64.992 26.0526 65.128C25.8766 65.256 25.7886 65.424 25.7886 65.632C25.7886 65.84 25.9086 66.004 26.1486 66.124C26.3966 66.244 26.7206 66.352 27.1206 66.448C27.5206 66.536 27.8886 66.64 28.2246 66.76C28.5686 66.872 28.8446 67.04 29.0526 67.264C29.2606 67.488 29.3646 67.816 29.3646 68.248C29.3726 68.792 29.1606 69.244 28.7286 69.604C28.3046 69.964 27.7246 70.144 26.9886 70.144ZM33.5372 70.144C32.9532 70.144 32.4332 70.016 31.9772 69.76C31.5292 69.496 31.1772 69.132 30.9212 68.668C30.6652 68.204 30.5372 67.664 30.5372 67.048C30.5372 66.424 30.6612 65.876 30.9092 65.404C31.1652 64.932 31.5172 64.564 31.9652 64.3C32.4212 64.036 32.9492 63.904 33.5492 63.904C34.1332 63.904 34.6412 64.036 35.0732 64.3C35.5052 64.556 35.8412 64.9 36.0812 65.332C36.3212 65.764 36.4412 66.24 36.4412 66.76C36.4412 66.84 36.4372 66.928 36.4292 67.024C36.4292 67.112 36.4252 67.212 36.4172 67.324H31.7852C31.8252 67.9 32.0132 68.34 32.3492 68.644C32.6932 68.94 33.0892 69.088 33.5372 69.088C33.8972 69.088 34.1972 69.008 34.4372 68.848C34.6852 68.68 34.8692 68.456 34.9892 68.176H36.2612C36.1012 68.736 35.7812 69.204 35.3012 69.58C34.8292 69.956 34.2412 70.144 33.5372 70.144ZM33.5372 64.948C33.1132 64.948 32.7372 65.076 32.4092 65.332C32.0812 65.58 31.8812 65.956 31.8092 66.46H35.1692C35.1452 65.996 34.9812 65.628 34.6772 65.356C34.3732 65.084 33.9932 64.948 33.5372 64.948ZM43.6045 70.144C43.0205 70.144 42.4965 70.012 42.0325 69.748C41.5765 69.484 41.2165 69.12 40.9525 68.656C40.6965 68.184 40.5685 67.64 40.5685 67.024C40.5685 66.408 40.6965 65.868 40.9525 65.404C41.2165 64.932 41.5765 64.564 42.0325 64.3C42.4965 64.036 43.0205 63.904 43.6045 63.904C44.3405 63.904 44.9565 64.096 45.4525 64.48C45.9565 64.864 46.2805 65.384 46.4245 66.04H45.0925C45.0125 65.712 44.8365 65.456 44.5645 65.272C44.2925 65.088 43.9725 64.996 43.6045 64.996C43.2925 64.996 43.0045 65.076 42.7405 65.236C42.4765 65.388 42.2645 65.616 42.1045 65.92C41.9445 66.216 41.8645 66.584 41.8645 67.024C41.8645 67.464 41.9445 67.836 42.1045 68.14C42.2645 68.436 42.4765 68.664 42.7405 68.824C43.0045 68.984 43.2925 69.064 43.6045 69.064C43.9725 69.064 44.2925 68.972 44.5645 68.788C44.8365 68.604 45.0125 68.344 45.0925 68.008H46.4245C46.2885 68.648 45.9685 69.164 45.4645 69.556C44.9605 69.948 44.3405 70.144 43.6045 70.144ZM47.804 70V61.36H49.076V70H47.804ZM51.4068 62.92C51.1668 62.92 50.9668 62.848 50.8068 62.704C50.6548 62.552 50.5788 62.364 50.5788 62.14C50.5788 61.916 50.6548 61.732 50.8068 61.588C50.9668 61.436 51.1668 61.36 51.4068 61.36C51.6468 61.36 51.8428 61.436 51.9948 61.588C52.1548 61.732 52.2348 61.916 52.2348 62.14C52.2348 62.364 52.1548 62.552 51.9948 62.704C51.8428 62.848 51.6468 62.92 51.4068 62.92ZM50.7708 70V64.048H52.0428V70H50.7708ZM56.542 70.144C55.958 70.144 55.434 70.012 54.97 69.748C54.514 69.484 54.154 69.12 53.89 68.656C53.634 68.184 53.506 67.64 53.506 67.024C53.506 66.408 53.634 65.868 53.89 65.404C54.154 64.932 54.514 64.564 54.97 64.3C55.434 64.036 55.958 63.904 56.542 63.904C57.278 63.904 57.894 64.096 58.39 64.48C58.894 64.864 59.218 65.384 59.362 66.04H58.03C57.95 65.712 57.774 65.456 57.502 65.272C57.23 65.088 56.91 64.996 56.542 64.996C56.23 64.996 55.942 65.076 55.678 65.236C55.414 65.388 55.202 65.616 55.042 65.92C54.882 66.216 54.802 66.584 54.802 67.024C54.802 67.464 54.882 67.836 55.042 68.14C55.202 68.436 55.414 68.664 55.678 68.824C55.942 68.984 56.23 69.064 56.542 69.064C56.91 69.064 57.23 68.972 57.502 68.788C57.774 68.604 57.95 68.344 58.03 68.008H59.362C59.226 68.648 58.906 69.164 58.402 69.556C57.898 69.948 57.278 70.144 56.542 70.144ZM60.7415 70V61.36H62.0135V66.508L64.2935 64.048H65.8175L63.2855 66.748L66.1895 70H64.5815L62.0135 66.952V70H60.7415ZM72.9825 70.144C72.4145 70.144 71.9025 70.016 71.4465 69.76C70.9985 69.496 70.6425 69.132 70.3785 68.668C70.1145 68.196 69.9825 67.648 69.9825 67.024C69.9825 66.4 70.1145 65.856 70.3785 65.392C70.6505 64.92 71.0145 64.556 71.4705 64.3C71.9265 64.036 72.4345 63.904 72.9945 63.904C73.5625 63.904 74.0705 64.036 74.5185 64.3C74.9745 64.556 75.3345 64.92 75.5985 65.392C75.8705 65.856 76.0065 66.4 76.0065 67.024C76.0065 67.648 75.8705 68.196 75.5985 68.668C75.3345 69.132 74.9745 69.496 74.5185 69.76C74.0625 70.016 73.5505 70.144 72.9825 70.144ZM72.9825 69.052C73.2865 69.052 73.5665 68.976 73.8225 68.824C74.0865 68.672 74.2985 68.448 74.4585 68.152C74.6185 67.848 74.6985 67.472 74.6985 67.024C74.6985 66.576 74.6185 66.204 74.4585 65.908C74.3065 65.604 74.0985 65.376 73.8345 65.224C73.5785 65.072 73.2985 64.996 72.9945 64.996C72.6905 64.996 72.4065 65.072 72.1425 65.224C71.8865 65.376 71.6785 65.604 71.5185 65.908C71.3585 66.204 71.2785 66.576 71.2785 67.024C71.2785 67.472 71.3585 67.848 71.5185 68.152C71.6785 68.448 71.8865 68.672 72.1425 68.824C72.3985 68.976 72.6785 69.052 72.9825 69.052ZM77.3821 70V64.048H78.5101L78.6061 65.092C78.7901 64.724 79.0581 64.436 79.4101 64.228C79.7701 64.012 80.1821 63.904 80.6461 63.904C81.3661 63.904 81.9301 64.128 82.3381 64.576C82.7541 65.024 82.9621 65.692 82.9621 66.58V70H81.7021V66.712C81.7021 65.56 81.2301 64.984 80.2861 64.984C79.8141 64.984 79.4221 65.152 79.1101 65.488C78.8061 65.824 78.6541 66.304 78.6541 66.928V70H77.3821ZM87.0517 64.42L88.2037 61.6H89.0917L88.4197 64.42H87.0517ZM89.1517 64.42L90.3037 61.6H91.1917L90.5197 64.42H89.1517ZM95.2607 70.144C94.6447 70.144 94.1047 70.036 93.6407 69.82C93.1767 69.604 92.8127 69.296 92.5487 68.896C92.2927 68.496 92.1607 68.02 92.1527 67.468H93.4967C93.5047 67.916 93.6607 68.296 93.9647 68.608C94.2687 68.92 94.6967 69.076 95.2487 69.076C95.7367 69.076 96.1167 68.96 96.3887 68.728C96.6687 68.488 96.8087 68.184 96.8087 67.816C96.8087 67.52 96.7407 67.28 96.6047 67.096C96.4767 66.912 96.2967 66.76 96.0647 66.64C95.8407 66.52 95.5807 66.412 95.2847 66.316C94.9887 66.22 94.6767 66.116 94.3487 66.004C93.7007 65.788 93.2127 65.508 92.8847 65.164C92.5647 64.82 92.4047 64.368 92.4047 63.808C92.3967 63.336 92.5047 62.924 92.7287 62.572C92.9607 62.22 93.2807 61.948 93.6887 61.756C94.1047 61.556 94.5887 61.456 95.1407 61.456C95.6847 61.456 96.1607 61.556 96.5687 61.756C96.9847 61.956 97.3087 62.236 97.5407 62.596C97.7727 62.948 97.8927 63.36 97.9007 63.832H96.5567C96.5567 63.616 96.5007 63.412 96.3887 63.22C96.2767 63.02 96.1127 62.856 95.8967 62.728C95.6807 62.6 95.4167 62.536 95.1047 62.536C94.7047 62.528 94.3727 62.628 94.1087 62.836C93.8527 63.044 93.7247 63.332 93.7247 63.7C93.7247 64.028 93.8207 64.28 94.0127 64.456C94.2047 64.632 94.4687 64.78 94.8047 64.9C95.1407 65.012 95.5247 65.144 95.9567 65.296C96.3727 65.432 96.7447 65.596 97.0727 65.788C97.4007 65.98 97.6607 66.232 97.8527 66.544C98.0527 66.856 98.1527 67.252 98.1527 67.732C98.1527 68.156 98.0447 68.552 97.8287 68.92C97.6127 69.28 97.2887 69.576 96.8567 69.808C96.4247 70.032 95.8927 70.144 95.2607 70.144ZM101.991 70C101.407 70 100.943 69.86 100.599 69.58C100.255 69.292 100.083 68.784 100.083 68.056V65.116H99.0634V64.048H100.083L100.239 62.536H101.355V64.048H103.035V65.116H101.355V68.056C101.355 68.384 101.423 68.612 101.559 68.74C101.703 68.86 101.947 68.92 102.291 68.92H102.975V70H101.991ZM106.363 70.144C105.859 70.144 105.443 70.06 105.115 69.892C104.787 69.724 104.543 69.504 104.383 69.232C104.223 68.952 104.143 68.648 104.143 68.32C104.143 67.744 104.367 67.288 104.815 66.952C105.263 66.616 105.903 66.448 106.735 66.448H108.295V66.34C108.295 65.876 108.167 65.528 107.911 65.296C107.663 65.064 107.339 64.948 106.939 64.948C106.587 64.948 106.279 65.036 106.015 65.212C105.759 65.38 105.603 65.632 105.547 65.968H104.275C104.315 65.536 104.459 65.168 104.707 64.864C104.963 64.552 105.283 64.316 105.667 64.156C106.059 63.988 106.487 63.904 106.951 63.904C107.783 63.904 108.427 64.124 108.883 64.564C109.339 64.996 109.567 65.588 109.567 66.34V70H108.463L108.355 68.98C108.187 69.308 107.943 69.584 107.623 69.808C107.303 70.032 106.883 70.144 106.363 70.144ZM106.615 69.112C106.959 69.112 107.247 69.032 107.479 68.872C107.719 68.704 107.903 68.484 108.031 68.212C108.167 67.94 108.251 67.64 108.283 67.312H106.867C106.363 67.312 106.003 67.4 105.787 67.576C105.579 67.752 105.475 67.972 105.475 68.236C105.475 68.508 105.575 68.724 105.775 68.884C105.983 69.036 106.263 69.112 106.615 69.112ZM111.05 70V64.048H112.19L112.298 65.176C112.506 64.784 112.794 64.476 113.162 64.252C113.538 64.02 113.99 63.904 114.518 63.904V65.236H114.17C113.818 65.236 113.502 65.296 113.222 65.416C112.95 65.528 112.73 65.724 112.562 66.004C112.402 66.276 112.322 66.656 112.322 67.144V70H111.05ZM118.105 70C117.521 70 117.057 69.86 116.713 69.58C116.369 69.292 116.197 68.784 116.197 68.056V65.116H115.177V64.048H116.197L116.353 62.536H117.469V64.048H119.149V65.116H117.469V68.056C117.469 68.384 117.537 68.612 117.673 68.74C117.817 68.86 118.061 68.92 118.405 68.92H119.089V70H118.105ZM127.276 70.144C126.444 70.144 125.724 69.964 125.116 69.604C124.516 69.236 124.052 68.728 123.724 68.08C123.396 67.424 123.232 66.668 123.232 65.812C123.232 64.948 123.396 64.192 123.724 63.544C124.052 62.888 124.516 62.376 125.116 62.008C125.724 61.64 126.444 61.456 127.276 61.456C128.26 61.456 129.064 61.696 129.688 62.176C130.312 62.656 130.708 63.328 130.876 64.192H129.46C129.348 63.704 129.108 63.316 128.74 63.028C128.372 62.74 127.88 62.596 127.264 62.596C126.424 62.596 125.76 62.884 125.272 63.46C124.784 64.028 124.54 64.812 124.54 65.812C124.54 66.804 124.784 67.584 125.272 68.152C125.76 68.72 126.424 69.004 127.264 69.004C127.88 69.004 128.372 68.868 128.74 68.596C129.108 68.324 129.348 67.952 129.46 67.48H130.876C130.708 68.312 130.312 68.964 129.688 69.436C129.064 69.908 128.26 70.144 127.276 70.144ZM132.226 70V64.048H133.366L133.474 65.176C133.682 64.784 133.97 64.476 134.338 64.252C134.714 64.02 135.166 63.904 135.694 63.904V65.236H135.346C134.994 65.236 134.678 65.296 134.398 65.416C134.126 65.528 133.906 65.724 133.738 66.004C133.578 66.276 133.498 66.656 133.498 67.144V70H132.226ZM139.404 70.144C138.836 70.144 138.324 70.016 137.868 69.76C137.42 69.496 137.064 69.132 136.8 68.668C136.536 68.196 136.404 67.648 136.404 67.024C136.404 66.4 136.536 65.856 136.8 65.392C137.072 64.92 137.436 64.556 137.892 64.3C138.348 64.036 138.856 63.904 139.416 63.904C139.984 63.904 140.492 64.036 140.94 64.3C141.396 64.556 141.756 64.92 142.02 65.392C142.292 65.856 142.428 66.4 142.428 67.024C142.428 67.648 142.292 68.196 142.02 68.668C141.756 69.132 141.396 69.496 140.94 69.76C140.484 70.016 139.972 70.144 139.404 70.144ZM139.404 69.052C139.708 69.052 139.988 68.976 140.244 68.824C140.508 68.672 140.72 68.448 140.88 68.152C141.04 67.848 141.12 67.472 141.12 67.024C141.12 66.576 141.04 66.204 140.88 65.908C140.728 65.604 140.52 65.376 140.256 65.224C140 65.072 139.72 64.996 139.416 64.996C139.112 64.996 138.828 65.072 138.564 65.224C138.308 65.376 138.1 65.604 137.94 65.908C137.78 66.204 137.7 66.576 137.7 67.024C137.7 67.472 137.78 67.848 137.94 68.152C138.1 68.448 138.308 68.672 138.564 68.824C138.82 68.976 139.1 69.052 139.404 69.052ZM143.804 72.64V64.048H144.944L145.076 64.972C145.268 64.692 145.532 64.444 145.868 64.228C146.204 64.012 146.636 63.904 147.164 63.904C147.74 63.904 148.248 64.04 148.688 64.312C149.128 64.584 149.472 64.956 149.72 65.428C149.976 65.9 150.104 66.436 150.104 67.036C150.104 67.636 149.976 68.172 149.72 68.644C149.472 69.108 149.128 69.476 148.688 69.748C148.248 70.012 147.736 70.144 147.152 70.144C146.688 70.144 146.276 70.052 145.916 69.868C145.564 69.684 145.284 69.424 145.076 69.088V72.64H143.804ZM146.936 69.04C147.48 69.04 147.928 68.856 148.28 68.488C148.632 68.112 148.808 67.624 148.808 67.024C148.808 66.632 148.728 66.284 148.568 65.98C148.408 65.676 148.188 65.44 147.908 65.272C147.628 65.096 147.304 65.008 146.936 65.008C146.392 65.008 145.944 65.196 145.592 65.572C145.248 65.948 145.076 66.432 145.076 67.024C145.076 67.624 145.248 68.112 145.592 68.488C145.944 68.856 146.392 69.04 146.936 69.04ZM151.48 72.64V64.048H152.62L152.752 64.972C152.944 64.692 153.208 64.444 153.544 64.228C153.88 64.012 154.312 63.904 154.84 63.904C155.416 63.904 155.924 64.04 156.364 64.312C156.804 64.584 157.148 64.956 157.396 65.428C157.652 65.9 157.78 66.436 157.78 67.036C157.78 67.636 157.652 68.172 157.396 68.644C157.148 69.108 156.804 69.476 156.364 69.748C155.924 70.012 155.412 70.144 154.828 70.144C154.364 70.144 153.952 70.052 153.592 69.868C153.24 69.684 152.96 69.424 152.752 69.088V72.64H151.48ZM154.612 69.04C155.156 69.04 155.604 68.856 155.956 68.488C156.308 68.112 156.484 67.624 156.484 67.024C156.484 66.632 156.404 66.284 156.244 65.98C156.084 65.676 155.864 65.44 155.584 65.272C155.304 65.096 154.98 65.008 154.612 65.008C154.068 65.008 153.62 65.196 153.268 65.572C152.924 65.948 152.752 66.432 152.752 67.024C152.752 67.624 152.924 68.112 153.268 68.488C153.62 68.856 154.068 69.04 154.612 69.04ZM161.94 70.144C161.356 70.144 160.836 70.016 160.38 69.76C159.932 69.496 159.58 69.132 159.324 68.668C159.068 68.204 158.94 67.664 158.94 67.048C158.94 66.424 159.064 65.876 159.312 65.404C159.568 64.932 159.92 64.564 160.368 64.3C160.824 64.036 161.352 63.904 161.952 63.904C162.536 63.904 163.044 64.036 163.476 64.3C163.908 64.556 164.244 64.9 164.484 65.332C164.724 65.764 164.844 66.24 164.844 66.76C164.844 66.84 164.84 66.928 164.832 67.024C164.832 67.112 164.828 67.212 164.82 67.324H160.188C160.228 67.9 160.416 68.34 160.752 68.644C161.096 68.94 161.492 69.088 161.94 69.088C162.3 69.088 162.6 69.008 162.84 68.848C163.088 68.68 163.272 68.456 163.392 68.176H164.664C164.504 68.736 164.184 69.204 163.704 69.58C163.232 69.956 162.644 70.144 161.94 70.144ZM161.94 64.948C161.516 64.948 161.14 65.076 160.812 65.332C160.484 65.58 160.284 65.956 160.212 66.46H163.572C163.548 65.996 163.384 65.628 163.08 65.356C162.776 65.084 162.396 64.948 161.94 64.948ZM166.163 70V64.048H167.303L167.411 65.176C167.619 64.784 167.907 64.476 168.275 64.252C168.651 64.02 169.103 63.904 169.631 63.904V65.236H169.283C168.931 65.236 168.615 65.296 168.335 65.416C168.063 65.528 167.843 65.724 167.675 66.004C167.515 66.276 167.435 66.656 167.435 67.144V70H166.163ZM172.462 64.408L173.134 61.588H174.502L173.338 64.408H172.462ZM170.362 64.408L171.034 61.588H172.414L171.25 64.408H170.362ZM35.8747 86.144C35.3707 86.144 34.9547 86.06 34.6267 85.892C34.2987 85.724 34.0547 85.504 33.8947 85.232C33.7347 84.952 33.6547 84.648 33.6547 84.32C33.6547 83.744 33.8787 83.288 34.3267 82.952C34.7747 82.616 35.4147 82.448 36.2467 82.448H37.8067V82.34C37.8067 81.876 37.6787 81.528 37.4227 81.296C37.1747 81.064 36.8507 80.948 36.4507 80.948C36.0987 80.948 35.7907 81.036 35.5267 81.212C35.2707 81.38 35.1147 81.632 35.0587 81.968H33.7867C33.8267 81.536 33.9707 81.168 34.2187 80.864C34.4747 80.552 34.7947 80.316 35.1787 80.156C35.5707 79.988 35.9987 79.904 36.4627 79.904C37.2947 79.904 37.9387 80.124 38.3947 80.564C38.8507 80.996 39.0787 81.588 39.0787 82.34V86H37.9747L37.8667 84.98C37.6987 85.308 37.4547 85.584 37.1347 85.808C36.8147 86.032 36.3947 86.144 35.8747 86.144ZM36.1267 85.112C36.4707 85.112 36.7587 85.032 36.9907 84.872C37.2307 84.704 37.4147 84.484 37.5427 84.212C37.6787 83.94 37.7627 83.64 37.7947 83.312H36.3787C35.8747 83.312 35.5147 83.4 35.2987 83.576C35.0907 83.752 34.9867 83.972 34.9867 84.236C34.9867 84.508 35.0867 84.724 35.2867 84.884C35.4947 85.036 35.7747 85.112 36.1267 85.112ZM40.5618 86V80.048H41.6898L41.7858 81.092C41.9698 80.724 42.2378 80.436 42.5898 80.228C42.9498 80.012 43.3618 79.904 43.8258 79.904C44.5458 79.904 45.1098 80.128 45.5178 80.576C45.9338 81.024 46.1418 81.692 46.1418 82.58V86H44.8818V82.712C44.8818 81.56 44.4098 80.984 43.4658 80.984C42.9938 80.984 42.6018 81.152 42.2898 81.488C41.9858 81.824 41.8338 82.304 41.8338 82.928V86H40.5618ZM50.3519 86.144C49.7759 86.144 49.2679 86.008 48.8279 85.736C48.3879 85.464 48.0439 85.092 47.7959 84.62C47.5479 84.148 47.4239 83.612 47.4239 83.012C47.4239 82.412 47.5479 81.88 47.7959 81.416C48.0439 80.944 48.3879 80.576 48.8279 80.312C49.2759 80.04 49.7879 79.904 50.3639 79.904C50.8359 79.904 51.2479 79.996 51.5999 80.18C51.9599 80.364 52.2399 80.624 52.4399 80.96V77.36H53.7119V86H52.5719L52.4399 85.076C52.2479 85.356 51.9839 85.604 51.6479 85.82C51.3119 86.036 50.8799 86.144 50.3519 86.144ZM50.5799 85.04C51.1239 85.04 51.5679 84.852 51.9119 84.476C52.2639 84.1 52.4399 83.616 52.4399 83.024C52.4399 82.424 52.2639 81.94 51.9119 81.572C51.5679 81.196 51.1239 81.008 50.5799 81.008C50.0359 81.008 49.5879 81.196 49.2359 81.572C48.8839 81.94 48.7079 82.424 48.7079 83.024C48.7079 83.416 48.7879 83.764 48.9479 84.068C49.1079 84.372 49.3279 84.612 49.6079 84.788C49.8959 84.956 50.2199 85.04 50.5799 85.04ZM60.8352 86C60.2512 86 59.7872 85.86 59.4432 85.58C59.0992 85.292 58.9272 84.784 58.9272 84.056V81.116H57.9072V80.048H58.9272L59.0832 78.536H60.1992V80.048H61.8792V81.116H60.1992V84.056C60.1992 84.384 60.2672 84.612 60.4032 84.74C60.5472 84.86 60.7912 84.92 61.1352 84.92H61.8192V86H60.8352ZM63.1907 86V77.36H64.4627V81.008C64.6627 80.664 64.9387 80.396 65.2907 80.204C65.6507 80.004 66.0467 79.904 66.4787 79.904C67.1907 79.904 67.7507 80.128 68.1587 80.576C68.5667 81.024 68.7707 81.692 68.7707 82.58V86H67.5107V82.712C67.5107 81.56 67.0507 80.984 66.1307 80.984C65.6507 80.984 65.2507 81.152 64.9307 81.488C64.6187 81.824 64.4627 82.304 64.4627 82.928V86H63.1907ZM73.0528 86.144C72.4688 86.144 71.9488 86.016 71.4928 85.76C71.0448 85.496 70.6928 85.132 70.4368 84.668C70.1808 84.204 70.0528 83.664 70.0528 83.048C70.0528 82.424 70.1768 81.876 70.4248 81.404C70.6808 80.932 71.0328 80.564 71.4808 80.3C71.9368 80.036 72.4648 79.904 73.0648 79.904C73.6488 79.904 74.1568 80.036 74.5888 80.3C75.0208 80.556 75.3568 80.9 75.5968 81.332C75.8368 81.764 75.9568 82.24 75.9568 82.76C75.9568 82.84 75.9528 82.928 75.9448 83.024C75.9448 83.112 75.9408 83.212 75.9328 83.324H71.3008C71.3408 83.9 71.5288 84.34 71.8648 84.644C72.2088 84.94 72.6048 85.088 73.0528 85.088C73.4128 85.088 73.7128 85.008 73.9528 84.848C74.2008 84.68 74.3848 84.456 74.5048 84.176H75.7768C75.6168 84.736 75.2968 85.204 74.8168 85.58C74.3448 85.956 73.7568 86.144 73.0528 86.144ZM73.0528 80.948C72.6288 80.948 72.2528 81.076 71.9248 81.332C71.5968 81.58 71.3968 81.956 71.3248 82.46H74.6848C74.6608 81.996 74.4968 81.628 74.1928 81.356C73.8888 81.084 73.5088 80.948 73.0528 80.948ZM77.2767 86V80.048H78.4047L78.5007 81.092C78.6847 80.724 78.9527 80.436 79.3047 80.228C79.6647 80.012 80.0767 79.904 80.5407 79.904C81.2607 79.904 81.8247 80.128 82.2327 80.576C82.6487 81.024 82.8567 81.692 82.8567 82.58V86H81.5967V82.712C81.5967 81.56 81.1247 80.984 80.1807 80.984C79.7087 80.984 79.3167 81.152 79.0047 81.488C78.7007 81.824 78.5487 82.304 78.5487 82.928V86H77.2767ZM87.3782 88.64V80.048H88.5182L88.6502 80.972C88.8422 80.692 89.1062 80.444 89.4422 80.228C89.7782 80.012 90.2102 79.904 90.7382 79.904C91.3142 79.904 91.8222 80.04 92.2622 80.312C92.7022 80.584 93.0462 80.956 93.2942 81.428C93.5502 81.9 93.6782 82.436 93.6782 83.036C93.6782 83.636 93.5502 84.172 93.2942 84.644C93.0462 85.108 92.7022 85.476 92.2622 85.748C91.8222 86.012 91.3102 86.144 90.7262 86.144C90.2622 86.144 89.8502 86.052 89.4902 85.868C89.1382 85.684 88.8582 85.424 88.6502 85.088V88.64H87.3782ZM90.5102 85.04C91.0542 85.04 91.5022 84.856 91.8542 84.488C92.2062 84.112 92.3822 83.624 92.3822 83.024C92.3822 82.632 92.3022 82.284 92.1422 81.98C91.9822 81.676 91.7622 81.44 91.4822 81.272C91.2022 81.096 90.8782 81.008 90.5102 81.008C89.9662 81.008 89.5182 81.196 89.1662 81.572C88.8222 81.948 88.6502 82.432 88.6502 83.024C88.6502 83.624 88.8222 84.112 89.1662 84.488C89.5182 84.856 89.9662 85.04 90.5102 85.04ZM95.054 86V77.36H96.326V86H95.054ZM99.9528 86.144C99.4488 86.144 99.0328 86.06 98.7048 85.892C98.3768 85.724 98.1328 85.504 97.9728 85.232C97.8128 84.952 97.7328 84.648 97.7328 84.32C97.7328 83.744 97.9568 83.288 98.4048 82.952C98.8528 82.616 99.4928 82.448 100.325 82.448H101.885V82.34C101.885 81.876 101.757 81.528 101.501 81.296C101.253 81.064 100.929 80.948 100.529 80.948C100.177 80.948 99.8688 81.036 99.6048 81.212C99.3488 81.38 99.1928 81.632 99.1368 81.968H97.8648C97.9048 81.536 98.0488 81.168 98.2968 80.864C98.5528 80.552 98.8728 80.316 99.2568 80.156C99.6488 79.988 100.077 79.904 100.541 79.904C101.373 79.904 102.017 80.124 102.473 80.564C102.929 80.996 103.157 81.588 103.157 82.34V86H102.053L101.945 84.98C101.777 85.308 101.533 85.584 101.213 85.808C100.893 86.032 100.473 86.144 99.9528 86.144ZM100.205 85.112C100.549 85.112 100.837 85.032 101.069 84.872C101.309 84.704 101.493 84.484 101.621 84.212C101.757 83.94 101.841 83.64 101.873 83.312H100.457C99.9528 83.312 99.5928 83.4 99.3768 83.576C99.1688 83.752 99.0648 83.972 99.0648 84.236C99.0648 84.508 99.1648 84.724 99.3648 84.884C99.5728 85.036 99.8528 85.112 100.205 85.112ZM105.148 88.64L106.576 85.508H106.228L103.876 80.048H105.256L107.08 84.452L108.988 80.048H110.332L106.492 88.64H105.148ZM116.07 86L113.838 80.048H115.17L116.826 84.788L118.482 80.048H119.802L117.582 86H116.07ZM121.567 78.92C121.327 78.92 121.127 78.848 120.967 78.704C120.815 78.552 120.739 78.364 120.739 78.14C120.739 77.916 120.815 77.732 120.967 77.588C121.127 77.436 121.327 77.36 121.567 77.36C121.807 77.36 122.003 77.436 122.155 77.588C122.315 77.732 122.395 77.916 122.395 78.14C122.395 78.364 122.315 78.552 122.155 78.704C122.003 78.848 121.807 78.92 121.567 78.92ZM120.931 86V80.048H122.203V86H120.931ZM126.594 86.144C126.018 86.144 125.51 86.008 125.07 85.736C124.63 85.464 124.286 85.092 124.038 84.62C123.79 84.148 123.666 83.612 123.666 83.012C123.666 82.412 123.79 81.88 124.038 81.416C124.286 80.944 124.63 80.576 125.07 80.312C125.518 80.04 126.03 79.904 126.606 79.904C127.078 79.904 127.49 79.996 127.842 80.18C128.202 80.364 128.482 80.624 128.682 80.96V77.36H129.954V86H128.814L128.682 85.076C128.49 85.356 128.226 85.604 127.89 85.82C127.554 86.036 127.122 86.144 126.594 86.144ZM126.822 85.04C127.366 85.04 127.81 84.852 128.154 84.476C128.506 84.1 128.682 83.616 128.682 83.024C128.682 82.424 128.506 81.94 128.154 81.572C127.81 81.196 127.366 81.008 126.822 81.008C126.278 81.008 125.83 81.196 125.478 81.572C125.126 81.94 124.95 82.424 124.95 83.024C124.95 83.416 125.03 83.764 125.19 84.068C125.35 84.372 125.57 84.612 125.85 84.788C126.138 84.956 126.462 85.04 126.822 85.04ZM134.342 86.144C133.758 86.144 133.238 86.016 132.782 85.76C132.334 85.496 131.982 85.132 131.726 84.668C131.47 84.204 131.342 83.664 131.342 83.048C131.342 82.424 131.466 81.876 131.714 81.404C131.97 80.932 132.322 80.564 132.77 80.3C133.226 80.036 133.754 79.904 134.354 79.904C134.938 79.904 135.446 80.036 135.878 80.3C136.31 80.556 136.646 80.9 136.886 81.332C137.126 81.764 137.246 82.24 137.246 82.76C137.246 82.84 137.242 82.928 137.234 83.024C137.234 83.112 137.23 83.212 137.222 83.324H132.59C132.63 83.9 132.818 84.34 133.154 84.644C133.498 84.94 133.894 85.088 134.342 85.088C134.702 85.088 135.002 85.008 135.242 84.848C135.49 84.68 135.674 84.456 135.794 84.176H137.066C136.906 84.736 136.586 85.204 136.106 85.58C135.634 85.956 135.046 86.144 134.342 86.144ZM134.342 80.948C133.918 80.948 133.542 81.076 133.214 81.332C132.886 81.58 132.686 81.956 132.614 82.46H135.974C135.95 81.996 135.786 81.628 135.482 81.356C135.178 81.084 134.798 80.948 134.342 80.948ZM141.35 86.144C140.782 86.144 140.27 86.016 139.814 85.76C139.366 85.496 139.01 85.132 138.746 84.668C138.482 84.196 138.35 83.648 138.35 83.024C138.35 82.4 138.482 81.856 138.746 81.392C139.018 80.92 139.382 80.556 139.838 80.3C140.294 80.036 140.802 79.904 141.362 79.904C141.93 79.904 142.438 80.036 142.886 80.3C143.342 80.556 143.702 80.92 143.966 81.392C144.238 81.856 144.374 82.4 144.374 83.024C144.374 83.648 144.238 84.196 143.966 84.668C143.702 85.132 143.342 85.496 142.886 85.76C142.43 86.016 141.918 86.144 141.35 86.144ZM141.35 85.052C141.654 85.052 141.934 84.976 142.19 84.824C142.454 84.672 142.666 84.448 142.826 84.152C142.986 83.848 143.066 83.472 143.066 83.024C143.066 82.576 142.986 82.204 142.826 81.908C142.674 81.604 142.466 81.376 142.202 81.224C141.946 81.072 141.666 80.996 141.362 80.996C141.058 80.996 140.774 81.072 140.51 81.224C140.254 81.376 140.046 81.604 139.886 81.908C139.726 82.204 139.646 82.576 139.646 83.024C139.646 83.472 139.726 83.848 139.886 84.152C140.046 84.448 140.254 84.672 140.51 84.824C140.766 84.976 141.046 85.052 141.35 85.052Z" fill="white" fill-opacity="0.5"/>
<defs>
<clipPath id="clip0_1_832">
<rect width="24" height="24" fill="white" transform="translate(77)"/>
</clipPath>
</defs>
</svg>
